<svg xmlns="http://www.w3.org/2000/svg" viewBox="-6.77 -6.77 352.04 56.04"><path fill="#3f4854" d="M0 38.982v-3.705h4.554l1.9 3.705 1.9 3.704H0zm8.855 2.557c.019-.63.142-2.02.273-3.087l.239-1.94 1.226 1.94 1.225 1.94.314-2.91c.294-2.735.363-2.91 1.146-2.91.775 0 .833-.136.833-1.94 0-1.068.16-1.94.353-1.94.194 0 .353.872.353 1.94v1.94h1.411c1.027 0 1.411.146 1.411.536 0 .389.232.478.844.324.464-.117.95-.04 1.079.17.59.955.9.171.9-2.28v-2.66l2.91.103 2.91.103.067 5.593c.036 3.076.14 5.667.229 5.756.09.09.525-.483.968-1.272.444-.789.922-1.434 1.064-1.434.142 0 .657.714 1.145 1.587l.887 1.588H8.82l.035-1.147zm23.61-1.692 1.427-2.839 2.178.105c1.955.094 2.197.19 2.372.933.18.771.278.71 1.399-.882.662-.94 1.252-1.773 1.31-1.849.06-.076.35.063.645.308.471.391.538.196.538-1.57 0-1.72.103-2.044.705-2.201.388-.102.706-.404.706-.673 0-.386.812-.488 3.88-.488 3.646 0 3.88.043 3.88.706 0 .517.236.705.883.705.875 0 .882.024.882 3.175 0 1.882.144 3.175.353 3.175.216 0 .352-1.705.352-4.41v-4.41h4.94v2.471h3.35c2.63 0 3.352.106 3.352.492 0 .27-.238.583-.53.694-.29.112-.528.367-.528.567 0 .2.238.364.529.364.405 0 .529.448.529 1.92 0 1.055.159 2.017.353 2.137.217.134.353-.467.353-1.567v-1.784h1.367c.751 0 1.863-.1 2.469-.22 1.054-.212 1.102-.297 1.102-1.941v-1.72h4.917l.1 4.145c.116 4.872.504 5.266 2.203 2.233.589-1.052 1.252-1.972 1.473-2.045.22-.073.777.47 1.235 1.207l.832 1.34.106-2.03c.078-1.488.242-2.028.617-2.028.407 0 .512.612.512 2.978 0 1.638.153 3.072.34 3.188.339.21 2.13-2.3 2.13-2.984 0-.21 1.026-.36 2.469-.36h2.47v-2.822h1.734c2.765 0 2.848.085 2.878 2.948.026 2.46.038 2.49.473 1.286.245-.68.59-1.217.767-1.196.269.033 1.053 1.339 1.67 2.783.084.194.878-.348 1.766-1.204l1.615-1.557 1.39.92 1.389.92.253-4.214.253-4.214h4.508v3.705c0 2.234.14 3.704.353 3.704.213 0 .353-1.47.353-3.704v-3.705h5.997v4.587c0 2.822.136 4.586.353 4.586.194 0 .353-.693.353-1.539s.1-2.274.224-3.175c.223-1.626.233-1.636 1.588-1.636 1.261 0 1.363-.075 1.363-1 0-.55.107-1.106.238-1.237.267-.268 6.225 5.343 6.402 6.029.063.243-.056.441-.264.441-.213 0-.371.656-.362 1.5l.018 1.499 1.19-2.823 1.19-2.822 3.907-.1 3.909-.1.055 1.159c.043.902.102.786.265-.527.115-.926.367-1.68.562-1.675.346.008.396.141.485 1.286.033.43.158.478.506.19.36-.3.69.062 1.499 1.632l1.037 2.016.103-2.734.103-2.734h1.132c1.115.001 1.132-.024 1.132-1.675V29.81l2.028-.105 2.029-.106v1.584c0 .871.14 1.672.313 1.778.173.107.757-.388 1.3-1.099.955-1.252.996-1.269 1.327-.525.314.703.6.766 3.464.766 3.11 0 3.12.003 3.12.9 0 .495-.242 1.368-.538 1.94l-.538 1.04h1.225c1.205 0 1.226.027 1.332 1.63l.107 1.629 1.411-1.974c.776-1.086 1.509-1.978 1.628-1.982.12-.004.461.588.76 1.315l.542 1.323.035-1.852c.03-1.605.128-1.852.74-1.852.658 0 .705.235.705 3.528 0 1.94.12 3.527.266 3.527.147 0 1.06-1.426 2.029-3.168.97-1.743 1.935-3.172 2.146-3.175.212-.004.606.43.876.964l.492.97.114-1.5c.092-1.198.25-1.499.786-1.499.596 0 .682.32.773 2.852l.103 2.853 1.736-2.368c1.83-2.494 1.763-2.48 2.894-.633.333.544.39.424.353-.752-.034-1.071.1-1.429.573-1.525.544-.11.617.186.617 2.493 0 2.838.508 4.841 1.228 4.841.249 0 .876-.555 1.394-1.234.889-1.166 1.06-1.235 3.022-1.235h2.08l.107-1.852c.104-1.8.137-1.852 1.165-1.852s1.062.053 1.165 1.852c.098 1.7.177 1.852.97 1.852.862 0 .864-.007.864-3.745 0-3.712.007-3.744.794-3.533.436.117 1.468.215 2.293.217 1.492.005 1.499.01 1.499 1.31 0 2.234.66.823.775-1.658l.107-2.293 3.087-.102 3.086-.101.06 4.864c.032 2.675.122 4.251.2 3.502.1-.978.333-1.412.822-1.54.434-.113.682-.485.682-1.02 0-.805.104-.84 2.455-.84h2.455l.103 2.734.103 2.734.558-1.588c.307-.873.7-1.587.872-1.587.172 0 .565.68.872 1.513l.56 1.513 1.688-1.29c1.803-1.376 2.028-1.372 4.004.066.79.573.795.567.856-.965.034-.848.023-2.693-.025-4.1l-.086-2.558h5.694l.059 4.498.06 4.498.25-3.704c.137-2.037.27-4.379.293-5.204l.043-1.499h5.292l.026 4.145c.04 6.345.448 7.868.841 3.144l.248-2.972 1.735-.23 1.736-.23v-2.9l1.802 2.432c.991 1.338 2.211 2.868 2.712 3.402.5.534.721.97.491.97-.253 0-.419.557-.419 1.411 0 .776.168 1.411.373 1.411s.915-1.19 1.579-2.645l1.205-2.646h2.831c2.497 0 2.832.075 2.832.638 0 .35.213.93.473 1.286.452.618.5.61 1.058-.188.322-.46.585-1.346.585-1.97 0-.625.159-1.234.353-1.354.202-.124.353.187.353.728 0 .77.092.87.492.537.4-.33.703-.053 1.595 1.456l1.102 1.865-.066-2.822-.066-2.822 1.117-.11c1.07-.106 1.118-.177 1.118-1.676v-1.565h3.527v1.565c0 1.508.042 1.569 1.147 1.675l1.146.11.102 3.088c.106 3.208.45 3.884 1 1.968.502-1.755 1.07-1.576 1.536.485.232 1.027.499 2.146.592 2.486.149.541.66.617 4.173.617h4.004l.607-1.588c.333-.873.74-1.587.902-1.587.163 0 .59.57.947 1.267l.65 1.268 1.195-2.502c.657-1.376 1.283-2.502 1.39-2.502.107 0 .828 1.189 1.603 2.642l1.408 2.643 1.631.003c1.546.003 1.643-.055 1.852-1.1.122-.606.22-2.352.22-3.88v-2.778h7.762v10.231H31.037l1.427-2.84zm27.86-6.157c0-.294-.313-.53-.705-.53-.392 0-.706.236-.706.53 0 .294.314.529.706.529.392 0 .705-.235.705-.53zm233.54 5.468V35.63h6.667l.106 2.029.105 2.028.86-1.5c.69-1.205 1.052-1.499 1.851-1.499.942 0 .994-.081.994-1.587 0-.873-.16-1.588-.353-1.588-.194 0-.353-.396-.353-.881 0-.773.153-.882 1.235-.882.987 0 1.234.137 1.234.684 0 .377-.158.783-.352.903-.194.12-.353.834-.353 1.586 0 1.285.069 1.375 1.146 1.479.957.092 1.266.358 1.864 1.604 1.389 2.89 1.576 2.698 1.576-1.608 0-3.927.008-3.963.905-4.304 1.023-.39 4.097-.455 5.754-.124l1.102.22v3.131c0 1.853.144 3.131.353 3.131.21 0 .353-1.31.353-3.226v-3.227l2.699.228c1.484.125 3.072.228 3.528.228.8 0 .828.096.828 2.822V38.1h3.88v-1.39c0-1.307.067-1.394 1.144-1.498 1.306-.127 1.658-.95.961-2.25-.87-1.626-.332-1.918 3.53-1.918h3.538v11.642h-44.803zm-156.9-17.651c-.899-.361-.96-.65-.396-1.887.347-.76.516-.828 1.31-.526 1.355.515 2.404.107 2.825-1.102.323-.927.289-1.06-.275-1.06-.516 0-1.036-1.118-2.589-5.556-1.069-3.056-1.872-5.676-1.785-5.821.087-.146.857-.265 1.711-.265 1.757 0 1.396-.69 3.102 5.936.794 3.085.86 3.208 1.06 1.982.116-.72.555-2.795.975-4.613l.764-3.305h1.347c.74 0 1.426.13 1.524.287.18.29-2.97 12.106-3.712 13.925-.844 2.072-3.464 2.968-5.86 2.005zm-106.52-4.912c-1.887-1.151-2.4-2.287-2.4-5.318 0-2.337.126-2.877.965-4.145.694-1.048 1.353-1.574 2.347-1.872 3.567-1.068 6.037 1.144 6.037 5.408v1.325h-3.352c-2.136 0-3.351.136-3.351.376 0 .53.737 1.868 1.2 2.176.59.395 2.635.32 3.47-.127.608-.326.829-.28 1.221.258.721.985.412 1.68-.956 2.148-1.86.636-3.91.545-5.18-.23zm3.96-7.687c-.339-1.35-.838-1.854-1.835-1.854-.644 0-.983.304-1.368 1.224-.281.672-.511 1.307-.511 1.41 0 .104.89.188 1.979.188h1.978zm7.072 7.553c-.865-.865-.908-1.09-.908-4.781V7.807l-.97-.112c-.762-.088-.994-.32-1.082-1.082-.1-.868 0-.97.95-.97 1.018 0 1.068-.071 1.17-1.676.107-1.66.12-1.676 1.431-1.785l1.323-.11v3.573h1.435c1.356 0 1.428.053 1.322.97-.097.844-.285.985-1.447 1.08l-1.335.11.1 3.418.101 3.418 1.313-.102c1.159-.09 1.34.006 1.544.82.311 1.238-.19 1.643-2.28 1.843-1.54.148-1.872.057-2.667-.739zm7.091.228c-1.198-.496-1.323-.662-1.118-1.48.308-1.225.263-1.207 1.822-.74 1.953.585 3.468.351 3.468-.536 0-.51-.555-.97-2.014-1.665-2.47-1.177-3.271-2.267-2.981-4.055.423-2.61 3.314-3.943 6.364-2.937 1.35.446 1.556.913.835 1.886-.37.5-.652.536-1.758.229-1.537-.428-2.85.066-2.669 1.003.062.323 1.008 1.016 2.101 1.54 3.422 1.64 4.138 3.934 1.92 6.151-1.042 1.043-1.422 1.197-2.91 1.182-.94-.01-2.318-.27-3.06-.578zm21.254-.436c-1.127-1.126-1.364-2.79-.63-4.403.515-1.13 2.3-1.974 4.173-1.974 1.444 0 1.466-.019 1.357-1.146l-.11-1.147h-2.256c-2.226 0-2.686-.266-2.835-1.64-.047-.445 2.216-1.006 4.058-1.006 1.487 0 2.079.184 2.946.914l1.085.913v3.826c0 2.105.165 4.26.367 4.79.401 1.055.154 1.373-1.383 1.781-.585.156-.94.046-1.167-.361-.295-.527-.402-.532-1.09-.05-1.3.91-3.332.686-4.515-.497zm4.284-1.45c.504-.27.682-.743.682-1.808 0-1.43-.01-1.441-1.113-1.22-1.44.288-2.062.824-2.062 1.778 0 1.421 1.122 1.983 2.493 1.25zm7.193 1.616c-.84-.84-.866-1.022-.866-5.958V5.369l1.24-.233c1.974-.37 2.061-.173 1.818 4.086-.124 2.164-.074 4.211.116 4.71.361.95 1.317 1.148 2.493.518.618-.33.683-.776.683-4.723V5.369l1.24-.233c.683-.128 1.404-.132 1.603-.009.23.141.327 2.133.266 5.397-.053 2.845-.02 5.394.073 5.665.259.752-2.143 1.324-2.65.63-.327-.447-.506-.453-1.25-.04-1.467.811-3.768.638-4.766-.36zm12.258.467c-1.37-.395-1.725-1.082-1.179-2.28.381-.837.436-.85 1.44-.33 1.391.719 3.408.707 3.688-.022.314-.819-.027-1.18-1.855-1.961-2.42-1.035-3.224-1.926-3.224-3.572 0-1.113.243-1.628 1.24-2.625 1.207-1.207 1.302-1.236 3.527-1.094 2.578.164 3.182.549 2.863 1.823-.209.83-.348.877-2.415.82-1.844-.052-2.213.038-2.32.563-.096.47.38.847 1.929 1.524 1.13.495 2.33 1.245 2.665 1.668.679.857.82 3.097.262 4.14-.829 1.549-3.813 2.155-6.62 1.346zm10.307-.267c-1.502-.915-2.265-2.704-2.265-5.308 0-3.783 1.52-5.96 4.382-6.283 3.163-.357 4.971 1.398 5.207 5.052l.113 1.737-3.263.101c-3.197.1-3.264.12-3.264.962 0 1.708 1.868 2.254 4.784 1.396.551-.162.827.01 1.146.709.567 1.245.583 1.21-.803 1.789-1.747.73-4.711.654-6.037-.155zm4.085-7.6c0-.939-.831-1.965-1.592-1.965-.604 0-1.583 1.357-1.583 2.195 0 .508.302.627 1.588.627 1.446 0 1.587-.076 1.587-.856zm19.403 7.797c-1.099-.382-1.228-.559-1.178-1.607.079-1.654.48-1.913 1.986-1.284 2.51 1.048 4.131.56 4.131-1.242 0-1.095-.566-1.641-3.113-3.002-2.343-1.252-3.237-2.46-3.237-4.375 0-3.067 1.706-4.602 5.115-4.602 1.602 0 3.553.56 4.348 1.247.063.054-.148.605-.468 1.224-.478.924-.72 1.078-1.349.864-1.534-.524-3.836-.371-4.251.281-.582.915.036 1.656 2.591 3.104 2.798 1.585 3.675 2.753 3.675 4.893 0 2.011-.946 3.711-2.467 4.433-1.337.634-4.058.665-5.783.066zm33.555-.107c-1.215-.851-1.805-2.622-1.805-5.422 0-4.386 1.573-6.505 4.67-6.29l1.68.117V3.077c0-1.863.078-2.067.905-2.382.498-.189 1.212-.344 1.588-.344.652 0 .682.317.682 7.255 0 4.398.146 7.529.37 7.948.324.605.203.764-.95 1.245-1.17.49-1.365.492-1.706.025-.33-.452-.509-.458-1.255-.046-1.189.659-3.187.626-4.179-.069zm4.369-5.598V7.583l-1.041-.118c-1.493-.17-1.958.676-1.958 3.56 0 3.097.388 3.867 1.876 3.723l1.123-.11zm18.52 3.675-1.94-2.493-.176 2.231-.176 2.232-1.5.108-1.5.108V.787l.795-.212a7.575 7.575 0 0 1 1.587-.218c.782-.005.794.063.794 4.482v4.487l2.039-2.017c1.12-1.11 2.192-2.014 2.38-2.01.19.004.74.322 1.225.705l.882.697-2.055 1.936-2.055 1.936 2.143 2.623c1.18 1.443 2.144 2.71 2.144 2.818 0 .228-1.948 1.273-2.364 1.269-.155-.002-1.155-1.125-2.222-2.496zm6.323 1.467c-1.2-1.2-1.402-3.22-.455-4.572.717-1.024 2.533-1.805 4.198-1.805 1.218 0 1.264-.045 1.158-1.146-.107-1.11-.16-1.146-1.698-1.127-.874.01-1.847.14-2.163.286-.439.203-.67-.002-.97-.866-.218-.623-.395-1.173-.395-1.222 0-.327 2.534-.864 4.082-.864 1.487 0 2.079.184 2.946.914l1.086.913v3.826c0 2.105.165 4.26.366 4.79.401 1.055.155 1.373-1.383 1.781-.584.156-.94.046-1.167-.361-.295-.527-.402-.532-1.09-.05-1.299.91-3.332.686-4.515-.497zm4.284-1.45c.5-.267.682-.742.682-1.77 0-1.355-.035-1.398-.97-1.174-1.623.388-2.205.827-2.205 1.663 0 1.45 1.11 2.02 2.493 1.28zm8.355 1.785c-.957-.755-.97-.82-.97-4.797V7.76h-1.058c-.936 0-1.058-.12-1.058-1.035 0-.867.157-1.053.97-1.147.888-.102.979-.253 1.077-1.787.096-1.496.197-1.676.942-1.676.458 0 1.085-.096 1.391-.214.468-.18.558.105.558 1.764v1.978h1.588c.873 0 1.587.069 1.587.153 0 .085-.154.561-.344 1.059-.28.735-.577.905-1.587.905h-1.244v3.104c0 3.478.272 4.026 1.779 3.594.916-.263 1.02-.197 1.234.776.304 1.38-.124 1.762-2.198 1.959-1.365.13-1.886.012-2.667-.605zM6.489 11.4c.125-3.07.32-6.652.433-7.962l.205-2.381h1.51c1.478 0 1.518.031 1.91 1.5.22.824.772 2.756 1.228 4.292l.83 2.794 1.37-4.205 1.37-4.205 1.456-.106 1.456-.106.215 3.28c.117 1.806.316 5.386.44 7.957l.228 4.674h-2.912l-.041-3.087c-.023-1.698-.142-4.092-.265-5.321l-.223-2.235-1.021 3.558-1.021 3.557h-2.276l-1.016-3.792-1.016-3.793-.176 5.468-.177 5.469-1.367.112-1.366.112zm16.088.946V7.76h-1.058c-.94 0-1.059-.118-1.059-1.059V5.643h4.94v11.289h-2.822zm35.278-3.66V.44l1.102-.22c.607-.122 1.242-.221 1.411-.221.17 0 .31 1.349.31 2.998 0 1.65.118 2.994.264 2.988.145-.006.572-.245.95-.53 1.103-.835 3.262-.659 4.27.348.84.84.865 1.02.865 5.998v5.13h-2.822v-3.857c0-4.484-.318-5.667-1.524-5.667-1.664 0-2.004.917-2.004 5.408v4.117h-2.822zm55.386 3.506c0-2.606-.151-5.137-.336-5.622-.308-.81-.23-.918.935-1.303 1.156-.381 1.323-.35 1.851.35l.58.77.657-.725c.671-.742 2.793-1.018 3.167-.412.106.171.02.806-.19 1.41-.303.871-.585 1.1-1.352 1.1-1.788 0-2.137.853-2.137 5.23v3.942h-3.175zm34.567-.11c-.002-2.669-.098-5.2-.212-5.625-.172-.641.018-.869 1.1-1.321 1.387-.58 1.94-.48 1.94.351 0 .639.34.63 1.213-.032.379-.286 1.433-.517 2.356-.517 1.385 0 1.796.159 2.402.929.663.842.731 1.405.731 5.997v5.068h-3.154l-.099-4.67c-.088-4.171-.166-4.683-.733-4.792-.349-.067-1.024.133-1.5.445-.837.55-.864.697-.864 4.792v4.225h-3.175l-.005-4.85zm24.347.284V7.76h-1.058c-.977 0-1.059-.097-1.059-1.25V5.26l2.558.103 2.558.104v11.289l-1.5.108-1.5.108zm.418-8.375c-.255-.102-.616-.588-.803-1.078a1.867 1.867 0 0 1 1.761-2.562c1.712 0 2.472 1.614 1.4 2.976-.682.869-1.365 1.06-2.358.664zM22.648 3.456c-.998-.998-.088-3.105 1.34-3.105 1.429 0 2.338 2.107 1.34 3.105-.232.233-.835.423-1.34.423-.504 0-1.107-.19-1.34-.423zm47.567-.26c-.55-1.028-.444-1.691.363-2.256 1.57-1.1 3.325.496 2.287 2.08-.687 1.049-2.132 1.145-2.65.177zm4.291.26c-.672-.672-.493-1.957.354-2.55.661-.464.885-.474 1.5-.069.858.567 1.12 1.82.529 2.532-.514.62-1.804.666-2.383.087z"/></svg>