<svg xmlns="http://www.w3.org/2000/svg" width="94.724" height="83.937" viewBox="0 0 88.803 78.691">
   <path
      style="fill:#35ADA4"
      d="m-2.585 477.422 4.743-14.388 9.862-2.491zM15.635 423.91l12.087-9.07 2.229 20.938zM-10.116 419.725l24.306 3.17 12.864-9.014zM56.797 426.735l-27.735-11.619 2.205 20.57zM60.12 417.669l.636-7.144-14.418 10.461 12.843 5.462zM78.687 417.083l-16.816-6.641-.634 7.59zM51.515 415.726l-6.441 4.612-9.27-3.71 6.419-15.03z"
      transform="translate(10.116 -398.731)" />
   <path
      style="fill:#35ADA4"
      d="m22.273 413.134-5.717-5.66 24.535-6.11-6.462 14.59-7.505-3.432zM-4.28 398.731l45.086 1.54-25.284 6.185zM59.096 427.126l-21.698 7.93.018 17.382c6.742-6.59 20.81-18.35 20.81-18.35zM2.737 461.538l33.326-26.03.054 17.311z"
      transform="translate(10.116 -398.731)" />
</svg>