<svg xmlns="http://www.w3.org/2000/svg" width="114.479" height="83.278" viewBox="0 0 107.324 78.073">
   <path style="fill:#B61B20" d="m377.766 351.399 3.902-11.53 10.702-2.156z"
      transform="translate(-377.766 -273.325)" />
   <path style="fill:#B61B20"
      d="M272.814 484.38c168.128 19.76 216.196 35.4 216.196 35.4-111.361-80.188-133.182-96.741-133.182-96.741l-62.717 6.013zM419.593 405.262l-52.037-7.648 8.205-20.662zm-65.163 12.307 17.636-41.894s-56.694 33.044-83.105 48.45c22.048-2.169 65.468-6.556 65.468-6.556z"
      transform="translate(-42.421 -115.04) scale(.30622)" />
   <path style="fill:#B61B20"
      d="m418.124 308.276-18.348 17.232 27.235-16.329c-4.414-.55-8.887-.903-8.887-.903z"
      transform="translate(-377.766 -273.325)" />
   <path style="fill:#B61B20"
      d="m304.613 493.94-21.18 13.58 142.824 37.15-25.207-37.51c-26.12-3.864-56.927-8.276-96.437-13.22zM265.553 487.595l22.967-63.047-38.978 44.791-62.27 93.154z"
      transform="translate(-42.421 -115.04) scale(.30622)" />
   <path style="fill:#B61B20" d="m413.152 319.174-8.344 14.778-22.499 4.35z"
      transform="translate(-377.766 -273.325)" />
</svg>